<svg width="48" height="48" version="1.1" viewBox="0 0 48 48" xmlns="http://www.w3.org/2000/svg">
 <style type="text/css">.st0{fill:#FFFFFF;}</style>
 <path class="st0" d="m45 19h-3.9c-0.4-1.3-0.9-2.6-1.6-3.7l2.8-2.7c1.2-1.2 1.2-3.2 0-4.4l-2.3-2.2c-1.3-1.2-3.3-1.2-4.5 0l-2.9 2.7c-1.1-0.6-2.3-1.1-3.6-1.4v-3.7c0-1.7-1.4-3.1-3.2-3.1h-3.2c-1.8 0-3.2 1.4-3.2 3.1v3.7c-1.3 0.4-2.6 0.9-3.7 1.5l-2.9-2.8c-1.3-1.2-3.3-1.2-4.5 0l-2.2 2.2c-1.3 1.2-1.3 3.2 0 4.4l2.9 2.8c-0.6 1.1-1.1 2.3-1.5 3.6h-3.9c-1.8 0-3.2 1.4-3.2 3.1v3.1c0 1.7 1.4 3.1 3.2 3.1h3.9c0.4 1.2 0.8 2.4 1.5 3.5l-2.9 2.7c-1.3 1.2-1.3 3.2 0 4.4l2.3 2.2c1.3 1.2 3.3 1.2 4.5 0l2.8-2.7c1.2 0.7 2.5 1.2 3.9 1.6v3.7c0 1.7 1.4 3.1 3.2 3.1h3.2c1.8 0 3.2-1.4 3.2-3.1v-3.7c1.3-0.4 2.6-0.9 3.7-1.5l2.7 2.6c1.3 1.2 3.3 1.2 4.5 0l2.3-2.2c1.3-1.2 1.3-3.2 0-4.4l-2.7-2.6c0.6-1.1 1.2-2.3 1.5-3.6h3.9c1.8 0 3.2-1.4 3.2-3.1v-3.1c-0.1-1.7-1.5-3.1-3.3-3.1zm-21 14c-5.3 0-9.6-4.1-9.6-9.3s4.3-9.3 9.6-9.3 9.6 4.1 9.6 9.3-4.3 9.3-9.6 9.3z"/>
 <path class="st0" d="m24 19c2.6 0 4.8 2.1 4.8 4.6s-2.1 4.6-4.8 4.6-4.8-2.1-4.8-4.6 2.2-4.6 4.8-4.6z"/>
</svg>
