<svg width="48" height="48" version="1.1" viewBox="0 0 48 48" xmlns="http://www.w3.org/2000/svg">
 <path d="m41 9.6h-11l5.5-5.5a2.4 2.4 0 1 0-3.4-3.4l-7.9 7.9-7.9-7.9a2.4 2.4 0 1 0-3.4 3.4l5.5 5.5h-11a7.2 7.2 0 0 0-7.2 7.2v24a7.2 7.2 0 0 0 7.2 7.2h34a7.2 7.2 0 0 0 7.2-7.2v-24a7.2 7.2 0 0 0-7.2-7.2zm-7.2 24a4.8 4.8 0 0 1-4.8 4.8h-19a4.8 4.8 0 0 1-4.8-4.8v-14a4.8 4.8 0 0 1 4.8-4.8h19a4.8 4.8 0 0 1 4.8 4.8zm7.2 7.2a2.4 2.4 0 1 1 2.4-2.4 2.4 2.4 0 0 1-2.4 2.4zm0-9.6a2.4 2.4 0 1 1 2.4-2.4 2.4 2.4 0 0 1-2.4 2.4zm0-9.6a2.4 2.4 0 1 1 2.4-2.4 2.4 2.4 0 0 1-2.4 2.4z" fill="#fff" stroke-width="2.4"/>
</svg>
