<svg version="1.1" viewBox="0 0 68 68" xmlns="http://www.w3.org/2000/svg">
 <path d="m67 56-4.6-4.6c-0.1-0.1-0.1-0.2-0.1-0.3s0-0.2 0.1-0.2c2.8-4.8 4.4-10 4.4-16 0-18-15-33-33-33s-33 15-33 33 15 33 33 33c6.5 0 13-1.9 18-5.2 0.1 0 0.2-0.1 0.2-0.1 0.1 0 0.2 0 0.3 0.1l4.6 4.6c0.3 0.4 1.1 0.7 1.6 0.7h8.4c0.5 0 0.9-0.4 0.9-0.9v-8.9c0-0.5-0.3-1.2-0.7-1.6m-13-22c0 11-8.8 20-20 20s-20-8.8-20-20 8.8-20 20-20c4.5 0 8.7 1.5 12 4.1l5.9-5.9 3.8 3.8-5.9 5.9c2.5 3.3 4 7.4 4 12m-7.8-16-11 11c-0.3-0.1-0.7-0.1-1.1-0.1-2.7 0-4.9 2.2-4.9 4.9s2.2 4.9 4.9 4.9 4.9-2.2 4.9-4.9c0-0.3 0-0.6-0.1-0.8l11-11c-1.1-1.6-2.4-2.8-3.8-3.9m-12 18c-1.1 0-2-0.9-2-2s0.9-2 2-2 2 0.9 2 2-0.9 2-2 2z" fill="#129DED"/>
</svg>
